<mxfile host="app.diagrams.net" agent="Mozilla/5.0 (X11; Linux x86_64) AppleWebKit/537.36 (KHTML, like Gecko) Chrome/138.0.0.0 Safari/537.36" version="28.2.3">
  <diagram name="第 1 页" id="1F44AIYHLuuY2jOQWdg-">
    <mxGraphModel dx="802" dy="448" grid="1" gridSize="10" guides="1" tooltips="1" connect="1" arrows="1" fold="1" page="1" pageScale="1" pageWidth="827" pageHeight="1169" math="0" shadow="0">
      <root>
        <mxCell id="0" />
        <mxCell id="1" parent="0" />
        <mxCell id="So883yTQqGH8XCx_VuaI-1" value="MPI Application" style="rounded=0;whiteSpace=wrap;html=1;rotation=0;labelBackgroundColor=none;fillColor=none;" parent="1" vertex="1">
          <mxGeometry x="293" y="60" width="240" height="30" as="geometry" />
        </mxCell>
        <mxCell id="So883yTQqGH8XCx_VuaI-6" value="" style="endArrow=none;html=1;rounded=0;" parent="1" edge="1">
          <mxGeometry width="50" height="50" relative="1" as="geometry">
            <mxPoint x="293" y="100" as="sourcePoint" />
            <mxPoint x="533" y="100" as="targetPoint" />
          </mxGeometry>
        </mxCell>
        <mxCell id="So883yTQqGH8XCx_VuaI-8" value="" style="endArrow=none;html=1;rounded=0;" parent="1" edge="1">
          <mxGeometry width="50" height="50" relative="1" as="geometry">
            <mxPoint x="293" y="130" as="sourcePoint" />
            <mxPoint x="293" y="100" as="targetPoint" />
          </mxGeometry>
        </mxCell>
        <mxCell id="So883yTQqGH8XCx_VuaI-9" value="" style="endArrow=none;html=1;rounded=0;" parent="1" edge="1">
          <mxGeometry width="50" height="50" relative="1" as="geometry">
            <mxPoint x="533" y="210" as="sourcePoint" />
            <mxPoint x="533" y="100" as="targetPoint" />
          </mxGeometry>
        </mxCell>
        <mxCell id="So883yTQqGH8XCx_VuaI-10" value="" style="endArrow=none;html=1;rounded=0;" parent="1" edge="1">
          <mxGeometry width="50" height="50" relative="1" as="geometry">
            <mxPoint x="293" y="130" as="sourcePoint" />
            <mxPoint x="500" y="130" as="targetPoint" />
          </mxGeometry>
        </mxCell>
        <mxCell id="So883yTQqGH8XCx_VuaI-11" value="OMPI" style="text;strokeColor=none;fillColor=none;html=1;fontSize=12;fontStyle=0;verticalAlign=middle;align=center;" parent="1" vertex="1">
          <mxGeometry x="363" y="96" width="100" height="40" as="geometry" />
        </mxCell>
        <mxCell id="So883yTQqGH8XCx_VuaI-12" value="" style="endArrow=none;html=1;rounded=0;" parent="1" edge="1">
          <mxGeometry width="50" height="50" relative="1" as="geometry">
            <mxPoint x="293" y="140" as="sourcePoint" />
            <mxPoint x="490" y="140" as="targetPoint" />
          </mxGeometry>
        </mxCell>
        <mxCell id="So883yTQqGH8XCx_VuaI-13" value="" style="endArrow=none;html=1;rounded=0;" parent="1" edge="1">
          <mxGeometry width="50" height="50" relative="1" as="geometry">
            <mxPoint x="293" y="170" as="sourcePoint" />
            <mxPoint x="293" y="140" as="targetPoint" />
          </mxGeometry>
        </mxCell>
        <mxCell id="So883yTQqGH8XCx_VuaI-14" value="" style="endArrow=none;html=1;rounded=0;" parent="1" edge="1">
          <mxGeometry width="50" height="50" relative="1" as="geometry">
            <mxPoint x="490" y="170" as="sourcePoint" />
            <mxPoint x="490" y="140" as="targetPoint" />
          </mxGeometry>
        </mxCell>
        <mxCell id="So883yTQqGH8XCx_VuaI-15" value="ORTE(PRRTE)" style="text;strokeColor=none;fillColor=none;html=1;fontSize=12;fontStyle=0;verticalAlign=middle;align=center;" parent="1" vertex="1">
          <mxGeometry x="340" y="136" width="100" height="40" as="geometry" />
        </mxCell>
        <mxCell id="So883yTQqGH8XCx_VuaI-16" value="" style="endArrow=none;html=1;rounded=0;" parent="1" edge="1">
          <mxGeometry width="50" height="50" relative="1" as="geometry">
            <mxPoint x="293" y="170" as="sourcePoint" />
            <mxPoint x="457" y="170" as="targetPoint" />
          </mxGeometry>
        </mxCell>
        <mxCell id="So883yTQqGH8XCx_VuaI-17" value="" style="endArrow=none;html=1;rounded=0;" parent="1" edge="1">
          <mxGeometry width="50" height="50" relative="1" as="geometry">
            <mxPoint x="293" y="180" as="sourcePoint" />
            <mxPoint x="447" y="180" as="targetPoint" />
          </mxGeometry>
        </mxCell>
        <mxCell id="So883yTQqGH8XCx_VuaI-18" value="" style="endArrow=none;html=1;rounded=0;" parent="1" edge="1">
          <mxGeometry width="50" height="50" relative="1" as="geometry">
            <mxPoint x="293" y="210" as="sourcePoint" />
            <mxPoint x="293" y="180" as="targetPoint" />
          </mxGeometry>
        </mxCell>
        <mxCell id="So883yTQqGH8XCx_VuaI-19" value="" style="endArrow=none;html=1;rounded=0;" parent="1" edge="1">
          <mxGeometry width="50" height="50" relative="1" as="geometry">
            <mxPoint x="447" y="210" as="sourcePoint" />
            <mxPoint x="447" y="180" as="targetPoint" />
          </mxGeometry>
        </mxCell>
        <mxCell id="So883yTQqGH8XCx_VuaI-20" value="OPAL" style="text;strokeColor=none;fillColor=none;html=1;fontSize=12;fontStyle=0;verticalAlign=middle;align=center;" parent="1" vertex="1">
          <mxGeometry x="320" y="176" width="100" height="40" as="geometry" />
        </mxCell>
        <mxCell id="So883yTQqGH8XCx_VuaI-21" value="" style="endArrow=none;html=1;rounded=0;" parent="1" edge="1">
          <mxGeometry width="50" height="50" relative="1" as="geometry">
            <mxPoint x="293" y="210" as="sourcePoint" />
            <mxPoint x="447" y="210" as="targetPoint" />
          </mxGeometry>
        </mxCell>
        <mxCell id="So883yTQqGH8XCx_VuaI-27" value="" style="endArrow=none;html=1;rounded=0;" parent="1" edge="1">
          <mxGeometry width="50" height="50" relative="1" as="geometry">
            <mxPoint x="457" y="210" as="sourcePoint" />
            <mxPoint x="457" y="170" as="targetPoint" />
          </mxGeometry>
        </mxCell>
        <mxCell id="So883yTQqGH8XCx_VuaI-28" value="" style="endArrow=none;html=1;rounded=0;" parent="1" edge="1">
          <mxGeometry width="50" height="50" relative="1" as="geometry">
            <mxPoint x="490" y="210" as="sourcePoint" />
            <mxPoint x="490" y="170" as="targetPoint" />
          </mxGeometry>
        </mxCell>
        <mxCell id="So883yTQqGH8XCx_VuaI-29" value="" style="endArrow=none;html=1;rounded=0;" parent="1" edge="1">
          <mxGeometry width="50" height="50" relative="1" as="geometry">
            <mxPoint x="457" y="210" as="sourcePoint" />
            <mxPoint x="490" y="210" as="targetPoint" />
          </mxGeometry>
        </mxCell>
        <mxCell id="So883yTQqGH8XCx_VuaI-30" value="" style="endArrow=none;html=1;rounded=0;" parent="1" edge="1">
          <mxGeometry width="50" height="50" relative="1" as="geometry">
            <mxPoint x="500" y="210" as="sourcePoint" />
            <mxPoint x="500" y="130" as="targetPoint" />
          </mxGeometry>
        </mxCell>
        <mxCell id="So883yTQqGH8XCx_VuaI-31" value="" style="endArrow=none;html=1;rounded=0;" parent="1" edge="1">
          <mxGeometry width="50" height="50" relative="1" as="geometry">
            <mxPoint x="500" y="210" as="sourcePoint" />
            <mxPoint x="533" y="210" as="targetPoint" />
          </mxGeometry>
        </mxCell>
        <mxCell id="So883yTQqGH8XCx_VuaI-32" value="Hardware" style="rounded=0;whiteSpace=wrap;html=1;rotation=0;fillColor=none;" parent="1" vertex="1">
          <mxGeometry x="293" y="250" width="240" height="30" as="geometry" />
        </mxCell>
        <mxCell id="So883yTQqGH8XCx_VuaI-33" value="OS" style="rounded=0;whiteSpace=wrap;html=1;rotation=0;fillColor=none;" parent="1" vertex="1">
          <mxGeometry x="293" y="216" width="240" height="30" as="geometry" />
        </mxCell>
      </root>
    </mxGraphModel>
  </diagram>
</mxfile>
